<?xml version="1.0" encoding="UTF-8"?>
<svg width="16px" height="16px" viewBox="0 0 16 16" version="1.1" xmlns="http://www.w3.org/2000/svg" xmlns:xlink="http://www.w3.org/1999/xlink">
    <!-- Generator: Sketch 54.1 (76490) - https://sketchapp.com -->
    <title>Combined Shape</title>
    <desc>Created with Sketch.</desc>
    <g id="404_page_test" stroke="none" stroke-width="1" fill="none" fill-rule="evenodd">
        <g transform="translate(-707.000000, -787.000000)" fill="#317DB7" id="social-media">
            <g transform="translate(570.000000, 770.000000)">
                <g id="skype" transform="translate(120.000000, 0.000000)">
                    <path d="M28.67,33.0004 C27.93,33.0004 27.233,32.8134 26.624,32.4864 C26.101,32.6004 25.557,32.6604 25,32.6604 C20.77,32.6604 17.34,29.2304 17.34,25.0004 C17.34,24.4424 17.4,23.8994 17.513,23.3754 C17.186,22.7674 17,22.0694 17,21.3304 C17,18.9384 18.939,17.0004 21.33,17.0004 C22.07,17.0004 22.767,17.1864 23.376,17.5134 C23.899,17.3994 24.443,17.3404 25,17.3404 C29.231,17.3404 32.66,20.7704 32.66,25.0004 C32.66,25.5574 32.6,26.1014 32.487,26.6244 C32.814,27.2334 33,27.9304 33,28.6704 C33,31.0614 31.062,33.0004 28.67,33.0004 Z M25.6588,23.9057 L25.5238,23.8727 C24.4118,23.5947 23.7298,23.3937 23.7298,22.7777 C23.7298,22.2077 24.1588,21.9197 25.0048,21.9197 C25.9638,21.9197 27.0128,22.4647 27.3068,22.7577 L27.4488,22.8987 L28.3788,21.1907 L28.2658,21.1147 C27.8618,20.8407 27.3848,20.5987 26.8468,20.3987 C26.3018,20.1957 25.6988,20.0927 25.0548,20.0927 C23.0118,20.0927 21.6388,21.2837 21.6388,23.0547 C21.6388,24.8857 23.1338,25.3037 24.7148,25.7477 C24.8878,25.7967 25.0638,25.8457 25.2398,25.8967 C25.8908,26.0897 26.4938,26.3407 26.4938,26.8757 C26.4938,27.1017 26.4148,27.2727 26.2518,27.3987 C25.7958,27.7537 24.7958,27.6677 24.2348,27.5237 C23.2038,27.2597 22.4548,26.7487 22.2988,26.5927 L22.1528,26.4467 L21.2308,28.2457 L21.3368,28.3207 C21.8688,28.6987 22.4768,28.9947 23.1438,29.1997 C23.7308,29.3807 24.4578,29.5097 25.1958,29.5097 C26.0448,29.5097 26.9078,29.3387 27.5798,28.8787 C27.9038,28.6557 28.1658,28.3597 28.3588,27.9987 C28.5498,27.6367 28.6468,27.1997 28.6468,26.6987 C28.6468,24.8597 27.2948,24.3457 25.6588,23.9057 Z" id="Combined-Shape"></path>
                </g>
            </g>
        </g>
    </g>
</svg>