<?xml version="1.0" encoding="UTF-8"?>
<svg width="50px" height="50px" viewBox="0 0 50 50" version="1.1" xmlns="http://www.w3.org/2000/svg" xmlns:xlink="http://www.w3.org/1999/xlink">
    <!-- Generator: Sketch 54.1 (76490) - https://sketchapp.com -->
    <title>entertainment-primary</title>
    <desc>Created with Sketch.</desc>
    <g id="entertainment-primary" stroke="none" stroke-width="1" fill="none" fill-rule="evenodd">
        <g>
            <path d="M8.93066406,13.9705627 L8.93066406,13.9705627 C11.9169321,24.8964975 20.2209874,33.5741353 31.0050247,37.038004 L34,38 L0.446289062,49 L8.93066406,13.9705627 Z" id="Rectangle" fill="#099CE7" fill-rule="nonzero" opacity="0.3"></path>
            <path d="M34.2729467,31.4559432 C34.1161016,31.0249777 33.6361431,30.8015641 33.2009975,30.9568651 C32.7657471,31.1121661 32.5401122,31.5873995 32.6969573,32.0182613 C32.7008313,32.0288359 32.7049147,32.0393068 32.7092075,32.0497776 C33.4731205,34.0236968 33.5284037,35.5331644 32.8599798,36.1966666 C32.0491599,36.9978455 30.0296486,36.7473734 27.4564679,35.5281881 C24.01153,33.7570518 20.8801777,31.4432951 18.1848086,28.6775276 C11.6237003,22.180182 8.9164998,15.8047549 10.59091,14.1468287 C11.1252094,13.7290297 11.8197043,13.5685451 12.4856154,13.7089172 C12.9469367,13.742507 13.3484727,13.399352 13.3823965,12.9425722 C13.4151685,12.5010322 13.0919504,12.1118466 12.6481144,12.0584554 C11.483503,11.8544285 10.2886325,12.1906375 9.4065098,12.970771 C6.33745572,16.0087818 11.0289874,23.9334866 17.0004083,29.8469502 C19.8295879,32.745833 23.1170524,35.1687565 26.7335984,37.0202387 C27.3885156,37.330737 28.0634311,37.5981077 28.7539473,37.8205883 L22.8026293,40.0549321 C14.8556723,37.0633664 9.13480554,30.0874698 7.80916097,21.7721281 C7.73743942,21.3195988 7.30878537,21.0102409 6.85175682,21.0812564 C6.39472826,21.1522719 6.08229453,21.576706 6.15401608,22.0292352 C6.28552304,22.858613 6.46142407,23.6879908 6.67669342,24.4991223 C8.60553192,31.7353398 13.6858258,37.7467737 20.5393694,40.9025562 L10.7441952,44.5725529 C10.6992776,44.4983236 10.642738,44.431766 10.5766704,44.375161 C8.08725211,42.3961619 6.52529289,39.493858 6.25453096,36.3442958 L5.86587345,31.684022 C5.83530018,31.2325295 5.44077931,30.8910332 4.98469308,30.9213055 C4.97600273,30.9219275 4.96731238,30.9225496 4.95872674,30.9234826 C4.49761476,30.9597679 4.15345603,31.3594243 4.19010208,31.8159968 C4.19020678,31.8178629 4.19041619,31.8198327 4.19062559,31.8216988 L4.58598409,36.4803138 C4.8804089,39.8468619 6.46644981,42.9736162 9.0178523,45.2178088 L2.03039348,47.8369838 L3.28682937,42.7313342 C3.3964534,42.286062 3.12087513,41.8371613 2.67117578,41.7286164 C2.22147644,41.6200716 1.76811249,41.8929369 1.65848845,42.3382091 L0.0242841674,48.9732314 C-0.0858633793,49.4180889 0.189086676,49.867197 0.638471914,49.9761565 C0.803274422,50.016174 0.976348466,50.0055994 1.1349735,49.9460916 L32.1270589,38.3348025 C32.176374,38.3109579 32.2229668,38.2820334 32.2661045,38.2485472 C32.9368318,38.1465338 33.5586629,37.8394566 34.0443801,37.3702362 C34.8743607,36.5483228 35.5888539,34.8539039 34.2729467,31.4559432 Z" id="Path" fill="#5A6E84"></path>
            <path d="M41.4671372,29.5571029 C37.0397291,28.049606 32.2544183,27.6269668 27.5908313,28.3317379 L24.6645466,28.7786796 C24.2203418,28.8563357 23.9294947,29.2467578 24.0148754,29.6507744 C24.0973895,30.0411035 24.5022823,30.3037748 24.9348164,30.2476277 L27.860282,29.8044106 C32.2400858,29.142099 36.7344471,29.5393184 40.8921997,30.9560302 C40.9844395,30.9857332 41.081798,31.0006313 41.1796684,30.9999795 C41.6319608,31.0006313 41.999282,30.6677529 41.9999987,30.2562872 C42.0006129,29.9448248 41.7880826,29.6659518 41.4671372,29.5571029 Z" id="Path" fill="#5A6E84"></path>
            <path d="M44.9195408,16.4753018 C44.7233522,16.0597055 44.2304026,15.8832594 43.8184065,16.0811623 L26.4712058,24.4139199 C26.059313,24.6117188 25.8842922,25.1088719 26.0803775,25.5244682 C26.0803775,25.5245724 26.0804808,25.5246765 26.0804808,25.5246765 C26.2765661,25.9401686 26.7694124,26.1167189 27.1814085,25.9189201 C27.1815117,25.9189201 27.1815117,25.918816 27.181615,25.918816 L44.5288157,17.5860584 C44.9408117,17.3881554 45.1157293,16.8908981 44.9195408,16.4753018 Z" id="Path" fill="#5A6E84"></path>
            <path d="M20.3651521,5.66137629 C20.268638,5.21453078 19.80548,4.92588715 19.3305868,5.01670102 C18.8556936,5.10751489 18.5489323,5.54331826 18.6454464,5.99016377 C18.6475303,6.00007073 18.6499431,6.0098745 18.6524656,6.01967827 C19.7630358,10.6882335 19.3053616,15.5661765 17.3425062,19.9794209 L16.0667654,22.8598717 C15.8824015,23.2795762 16.092868,23.7605802 16.5379296,23.9364288 C16.6445338,23.9786366 16.7591443,24.0002049 16.8748515,23.9999985 C17.2289924,23.9999985 17.5483664,23.7997952 17.6846925,23.4922665 L18.9613107,20.615118 C21.0643309,15.8877402 21.5549076,10.6624341 20.3651521,5.66137629 Z" id="Path" fill="#5A6E84"></path>
            <path d="M45.5,30 C44.1192708,30 43,31.1192708 43,32.5 C43,33.8807292 44.1192708,35 45.5,35 C46.8807292,35 48,33.8807292 48,32.5 C48,31.1192708 46.8807292,30 45.5,30 Z M45.5,33.3333333 C45.0397917,33.3333333 44.6666667,32.9602083 44.6666667,32.5 C44.6666667,32.0397917 45.0397917,31.6666667 45.5,31.6666667 C45.9602083,31.6666667 46.3333333,32.0397917 46.3333333,32.5 C46.3333333,32.9602083 45.9602083,33.3333333 45.5,33.3333333 Z" id="Shape" fill="#5A6E84" fill-rule="nonzero"></path>
            <path d="M25.5,7 C24.1192708,7 23,8.11927083 23,9.5 C23,10.8807292 24.1192708,12 25.5,12 C26.8807292,12 28,10.8807292 28,9.5 C28,8.11927083 26.8807292,7 25.5,7 Z M25.5,10.3333333 C25.0397917,10.3333333 24.6666667,9.96020833 24.6666667,9.5 C24.6666667,9.03979167 25.0397917,8.66666667 25.5,8.66666667 C25.9602083,8.66666667 26.3333333,9.03979167 26.3333333,9.5 C26.3333333,9.96020833 25.9602083,10.3333333 25.5,10.3333333 Z" id="Shape" fill="#5A6E84" fill-rule="nonzero"></path>
            <circle id="Oval" fill="#5A6E84" cx="18.5" cy="1.5" r="1.5"></circle>
            <path d="M42,4 C41.44775,4 41,4.44775 41,5 L41,6 C41,6.55225 41.44775,7 42,7 C42.55225,7 43,6.55225 43,6 L43,5 C43,4.44775 42.55225,4 42,4 Z" id="Path" fill="#5A6E84"></path>
            <path d="M42,0 C41.44775,0 41,0.44775 41,1 L41,2 C41,2.55225 41.44775,3 42,3 C42.55225,3 43,2.55225 43,2 L43,1 C43,0.44775 42.55225,0 42,0 Z" id="Path" fill="#5A6E84"></path>
            <path d="M44,2 L43,2 C42.44775,2 42,2.44775 42,3 C42,3.55225 42.44775,4 43,4 L44,4 C44.55225,4 45,3.55225 45,3 C45,2.44775 44.55225,2 44,2 Z" id="Path" fill="#5A6E84"></path>
            <path d="M40,2 L39,2 C38.44775,2 38,2.44775 38,3 C38,3.55225 38.44775,4 39,4 L40,4 C40.55225,4 41,3.55225 41,3 C41,2.44775 40.55225,2 40,2 Z" id="Path" fill="#5A6E84"></path>
            <path d="M35.1454209,9 L30.8545791,9 C30.3826378,9 30,9.3826378 30,9.85457912 L30,14.1454209 C30,14.6173622 30.3826378,15 30.8545791,15 L35.1454209,15 C35.6173622,15 36,14.6173622 36,14.1454209 L36,9.85457912 C36,9.3826378 35.6173622,9 35.1454209,9 Z M34.2908418,13.2908418 L31.7091582,13.2908418 L31.7091582,10.7091582 L34.2908418,10.7091582 L34.2908418,13.2908418 Z" id="Shape" fill="#5A6E84" fill-rule="nonzero"></path>
            <path d="M29.774509,16.2591439 C29.4681916,15.9381274 28.9583926,15.9119136 28.6196392,16.1997533 L20.2759575,23.572382 C19.933658,23.8750693 19.9060195,24.3928941 20.2142143,24.7290655 C20.5225133,25.0651345 21.0499383,25.0922698 21.3923421,24.7896849 L29.7360238,17.4170562 C30.0723784,17.107713 30.0895873,16.5893763 29.774509,16.2591439 Z" id="Path" fill="#5A6E84"></path>
            <path d="M45,19 C44.44775,19 44,19.44775 44,20 L44,21 C44,21.55225 44.44775,22 45,22 C45.55225,22 46,21.55225 46,21 L46,20 C46,19.44775 45.55225,19 45,19 Z" id="Path" fill="#5A6E84"></path>
            <path d="M48.6859819,19.1046676 L47.8952923,18.3140027 C47.4510188,17.8848406 46.7430888,17.8971423 46.3139133,18.341402 C45.8953622,18.7747579 45.8953622,19.4618367 46.3139133,19.8953324 L47.1046028,20.6859973 C47.5488764,21.1151594 48.2568063,21.1028577 48.6859819,20.658598 C49.1046727,20.2251023 49.1046727,19.5380235 48.6859819,19.1046676 Z" id="Path" fill="#5A6E84"></path>
            <path d="M49,16 L48,16 C47.44775,16 47,16.44775 47,17 C47,17.55225 47.44775,18 48,18 L49,18 C49.55225,18 50,17.55225 50,17 C50,16.44775 49.55225,16 49,16 Z" id="Path" fill="#5A6E84"></path>
            <path d="M48.660121,12.3124899 C48.2286983,11.8958367 47.5446846,11.8958367 47.1131227,12.3124899 L46.3259851,13.0995941 C45.8912224,13.5344776 45.8913615,14.2393367 46.3262634,14.6740809 C46.5350163,14.8826858 46.8180853,15 47.1131227,15 L47.1131227,15 C47.4084385,15 47.6915075,14.8825467 47.9002604,14.6738026 L48.6873981,13.8866984 C49.1146457,13.4444393 49.1023989,12.7395802 48.660121,12.3124899 Z" id="Path" fill="#5A6E84"></path>
            <path d="M45,12 C44.44775,12 44,12.44775 44,13 L44,14 C44,14.55225 44.44775,15 45,15 C45.55225,15 46,14.55225 46,14 L46,13 C46,12.44775 45.55225,12 45,12 Z" id="Path" fill="#5A6E84"></path>
            <path d="M43.6859819,13.1046337 L42.8952923,12.3139547 C42.4510188,11.8849247 41.7430888,11.8970869 41.3139133,12.3413545 C40.8953622,12.7747182 40.8953622,13.4618092 41.3139133,13.8953127 L42.1046028,14.6859917 C42.5488764,15.1151615 43.2568063,15.1028595 43.6859819,14.6585919 C44.1046727,14.2250885 44.1046727,13.5379974 43.6859819,13.1046337 Z" id="Path" fill="#5A6E84"></path>
            <path d="M9.95878491,3.35724542 C9.86067399,3.07341469 9.59998222,2.86667138 9.28638137,2.82371427 L6.84089883,2.4886881 L5.75022196,0.402424424 C5.50713183,0.0137509116 4.97543726,-0.115806926 4.56268397,0.113101471 C4.43582717,0.18342166 4.33011317,0.282968371 4.25543638,0.402424424 L3.15976022,2.4886881 L0.714277684,2.82371427 C0.258822185,2.88559996 -0.0570700013,3.28349258 0.00864973804,3.71237708 C0.0347918214,3.88312666 0.119987934,4.04093026 0.251010805,4.16146515 L2.01992373,5.78559671 L1.60331682,8.07899601 C1.52332829,8.50572284 1.82578491,8.91273649 2.27894907,8.98805853 C2.46142289,9.01836388 2.64931261,8.9906085 2.81314327,8.90910769 L5.00032953,7.8232149 L7.18751578,8.90596927 C7.59485318,9.10761266 8.09863508,8.96020507 8.31277103,8.57663148 C8.3980713,8.42392781 8.42744208,8.24905906 8.39650902,8.07899601 L7.97990211,5.78559671 L9.74964825,4.16146515 C9.97617825,3.95266224 10.0572083,3.64097806 9.95878491,3.35724542 Z M6.50011439,4.94999279 C6.30389253,5.12996147 6.2142179,5.3892733 6.26014881,5.64358327 L6.46678583,6.77733694 L5.38777395,6.24145199 C5.14520458,6.12150556 4.85545448,6.12150556 4.6128851,6.24145199 L3.52970715,6.77655234 L3.73634418,5.64279867 C3.7831083,5.38946945 3.69499594,5.13054993 3.50054467,4.94999279 L2.62483695,4.14734227 L3.83383019,3.98179069 C4.10524959,3.94471812 4.33990343,3.7841684 4.46124019,3.55261196 L5.00032953,2.5224261 L5.54025208,3.55261196 C5.66148469,3.78397225 5.89572192,3.9444239 6.16682886,3.98179069 L7.37498889,4.14734227 L6.50011439,4.94999279 Z" id="Shape" fill="#5A6E84" fill-rule="nonzero"></path>
            <path d="M47.0976944,41.8577628 L47.094212,41.8577628 L46.7355199,41.3494043 C44.7242976,38.5076761 41.5616912,36.5754202 37.9937061,36.0083496 C37.5176991,35.9441879 37.0767342,36.2567708 37.0088265,36.70652 C36.9432041,37.1410513 37.2502036,37.5477176 37.7064042,37.6304904 C40.2799329,38.0432232 42.6252524,39.2785426 44.3500434,41.1297737 C42.8999305,41.3762412 41.6316666,42.1991362 40.8675959,43.389419 C39.9299469,44.9760857 40.5312133,46.9804207 42.2105147,47.8663465 C43.8898162,48.7522722 46.0111708,48.1841734 46.9488198,46.5975067 C47.3069677,45.9442701 47.5003524,45.221525 47.5138469,44.4859269 C48.4401779,45.7571317 48.5142887,47.4172142 47.7045109,48.7576191 C47.459216,49.1483477 47.5955756,49.6530045 48.0091162,49.8847683 C48.4226568,50.1165321 48.9567772,49.9876945 49.2020721,49.5969658 C49.2099076,49.5844214 49.2174166,49.5717741 49.2245992,49.5588184 C50.8186895,46.868549 49.8797346,43.4691071 47.0976944,41.8577628 Z M45.4304727,45.7946622 C44.9657836,46.5902062 43.9065754,46.8791398 43.0646938,46.4400842 C42.2228121,46.0010286 41.9169009,45.0002492 42.3815899,44.204808 C42.3842018,44.2003866 42.3868136,44.1958623 42.3894254,44.1914409 C42.9031953,43.3966166 43.7697806,42.8637862 44.7470424,42.7420434 C44.89842,42.7381361 45.0482741,42.7710396 45.1823483,42.8374634 C45.9171447,43.2249017 45.9563223,44.9046235 45.4304727,45.7946622 Z" id="Shape" fill="#5A6E84" fill-rule="nonzero"></path>
        </g>
    </g>
</svg>