<?xml version="1.0" encoding="UTF-8"?>
<svg width="8px" height="14px" viewBox="0 0 8 14" version="1.1" xmlns="http://www.w3.org/2000/svg" xmlns:xlink="http://www.w3.org/1999/xlink">
    <!-- Generator: Sketch 54.1 (76490) - https://sketchapp.com -->
    <title>fb</title>
    <desc>Created with Sketch.</desc>
    <g id="404_page_test" stroke="none" stroke-width="1" fill="none" fill-rule="evenodd">
        <g transform="translate(-591.000000, -788.000000)" fill="#2D6DCC" id="social-media">
            <g transform="translate(570.000000, 770.000000)">
                <g id="fb">
                    <path d="M28.095,25.13 L25.88,25.13 L25.88,31.207 L23.374,31.207 L23.374,25.13 L21.809,25.13 L21.809,22.697 L23.374,22.697 L23.374,20.948 C23.374,20.572 23.438,20.197 23.563,19.834 C23.69,19.467 23.885,19.137 24.144,18.853 C24.404,18.568 24.738,18.342 25.136,18.185 C25.534,18.027 26.012,17.966 26.565,18.004 L26.576,18.004 C26.737,18.004 26.905,18.009 27.074,18.022 C27.22,18.034 27.378,18.042 27.552,18.048 C27.731,18.054 27.91,18.07 28.083,18.095 L28.194,18.111 L28.133,20.381 L26.575,20.38 C26.277,20.38 26.09,20.443 26.018,20.565 C25.927,20.721 25.88,20.942 25.88,21.221 L25.88,22.697 L28.196,22.697 L28.095,25.13 Z"></path>
                </g>
            </g>
        </g>
    </g>
</svg>