<?xml version="1.0" encoding="UTF-8"?>
<svg width="50px" height="50px" viewBox="0 0 50 50" version="1.1" xmlns="http://www.w3.org/2000/svg" xmlns:xlink="http://www.w3.org/1999/xlink">
    <!-- Generator: Sketch 54.1 (76490) - https://sketchapp.com -->
    <title>house-icon-primary</title>
    <desc>Created with Sketch.</desc>
    <g id="house-icon-primary" stroke="none" stroke-width="1" fill="none" fill-rule="evenodd">
        <g>
            <circle id="Oval" fill="#099CE7" fill-rule="nonzero" opacity="0.3" cx="30.5" cy="11.5" r="8.5"></circle>
            <path d="M3.51406421,37.9358671 C3.61738486,37.9787943 3.72568599,37.9998138 3.83320587,37.9998138 C4.0499058,37.9998138 4.26318774,37.9139594 4.42236794,37.7531057 L18.0023926,24.031099 L31.5775344,37.7531057 C31.8150352,37.9939915 32.1733372,38.0663264 32.4858382,37.9358671 C32.796679,37.8053091 33,37.4980094 33,37.1577495 L33,26.2104202 C33,25.745622 32.6266589,25.3683559 32.1666965,25.3683559 C31.7067341,25.3683559 31.333393,25.745622 31.333393,26.2104202 L31.333393,35.1239861 L18.5941914,22.2467082 C18.2816904,21.9309217 17.7233878,21.9309217 17.4108868,22.2467082 L4.66670468,35.1248743 L4.66670468,25.3683559 L8.83341745,25.3683559 C9.29337989,25.3683559 9.66672095,24.9910898 9.66672095,24.5262916 L9.66672095,23.6842273 L11.3334256,23.6842273 L11.3334256,24.5262916 C11.3334256,24.9910898 11.7067666,25.3683559 12.1667291,25.3683559 C12.6266915,25.3683559 13.0000326,24.9910898 13.0000326,24.5262916 L13.0000326,22.8420643 C13.0000326,22.3772661 12.6266915,22 12.1667291,22 L8.8333198,22 C8.37335736,22 8.00001631,22.3772661 8.00001631,22.8420643 L8.00001631,23.6841286 L3.83330353,23.6841286 C3.37334109,23.6841286 3.00000004,24.0613947 3.00000004,24.5261929 L3.00000004,37.1576509 C2.99990238,37.4979108 3.20322335,37.8053091 3.51406421,37.9358671 Z" id="Path" fill="#5A6E84"></path>
            <path d="M23.415837,17.7127958 C23.3641766,18.4983722 23.3333171,19.3378365 23.3333171,20.2499753 C23.3333171,24.4762677 24.5791239,27 26.6666341,27 C29.2982876,27 29.9999512,23.8182424 29.9999512,21.9375062 C29.9999512,21.4717963 29.6266095,21.0937902 29.1666463,21.0937902 C28.7066831,21.0937902 28.3333415,21.4717963 28.3333415,21.9375062 C28.3333415,21.9712232 28.2616614,25.3124691 26.6666341,25.3124691 C25.7008091,25.3124691 24.9999268,23.1836509 24.9999268,20.2499753 C24.9999268,10.4127192 28.4099043,9.29224696 28.5174244,9.26100188 C28.9565867,9.159752 29.2391076,8.72182651 29.149947,8.27213468 C29.0607864,7.81562034 28.6249445,7.51869321 28.1699618,7.61064867 C28.0032617,7.64436567 27.3991572,7.80474389 26.6724935,8.43498482 C26.6733724,8.28983363 26.6849936,8.14478132 26.7233727,8.00042114 C26.8384123,7.56506645 27.1141949,7.20139746 27.5000366,6.97615603 C27.8858783,6.75091461 28.3350016,6.69099525 28.764203,6.80737328 C29.1941855,6.92464121 29.5542459,7.20396826 29.775829,7.59374073 C30.2357922,8.39948804 29.962451,9.43393746 29.1666463,9.89885632 C28.7675233,10.1326012 28.6316828,10.648936 28.8616644,11.0522546 C29.0158643,11.3222872 29.2958462,11.4732721 29.5841288,11.4732721 C29.7258287,11.4732721 29.8690912,11.4369843 29.9999512,11.3602559 C31.5916582,10.4287373 32.1383405,8.36072832 31.2199767,6.75002472 C30.774955,5.96958988 30.0558108,5.41103465 29.1958457,5.17728982 C28.3342204,4.94354499 27.4366574,5.0642736 26.6666341,5.51475645 C25.8958296,5.96533818 25.3441667,6.69346717 25.1133062,7.56417656 C24.8974849,8.37921829 24.9999268,9.2255051 25.3916279,9.9958545 C24.6765853,11.1737742 24.0083204,12.9278492 23.6366389,15.5367144 C22.3891718,14.0238989 21.6666097,12.0967894 21.6666097,10.1248888 C21.6666097,5.47243717 25.4050069,1.68743202 29.9999512,1.68743202 C34.5948955,1.68743202 38.3332926,5.47253604 38.3332926,10.1248888 C38.3332926,14.7772415 34.5948955,18.5623455 29.9999512,18.5623455 C29.0949663,18.5623455 28.2049229,18.4164033 27.3557976,18.1294627 C26.9208346,17.9826306 26.4474924,18.2206272 26.3015933,18.6619145 C26.1549129,19.1039928 26.3907539,19.5815679 26.8274747,19.7292899 C27.8474993,20.07437 28.9149849,20.2498764 29.9999512,20.2498764 C35.5141383,20.2498764 40,15.7079691 40,10.1248888 C40.0000977,4.5419073 35.5142359,0 30.0000488,0 C24.4858617,0 20,4.5419073 20,10.1249876 C20,13.0022046 21.2758851,15.7983425 23.415837,17.7127958 Z" id="Path" fill="#5A6E84"></path>
            <path d="M49.764135,24.599059 L41.4025339,16.2355415 C41.0885504,15.9214862 40.5788935,15.9214862 40.2641553,16.2355415 C39.9501718,16.5504462 39.9501718,17.0601256 40.2641553,17.374181 L48.3898915,25.5017795 L48.3898915,28.3895225 L45.5028102,28.3895225 L45.1694858,28.0561218 L45.1694858,25.9737119 C45.1694858,25.5292405 44.8088011,25.1684731 44.3644316,25.1684731 L43.5593773,25.1684731 L43.5593773,24.3632344 C43.5593773,23.918763 43.1986926,23.5579956 42.7543231,23.5579956 L40.6731451,23.5579956 L40.339066,23.22384 L40.339066,21.142185 C40.339066,20.6977136 39.9783813,20.3369463 39.5340117,20.3369463 L37.4519846,20.3369463 L37.3738662,20.2588099 C37.0598827,19.9447545 36.5502258,19.9447545 36.2354876,20.2588099 C35.9215041,20.5737146 35.9215041,21.083394 36.2354876,21.3974494 L36.549471,21.7115048 C36.7000472,21.8628704 36.905344,21.9474238 37.1186603,21.9474238 L38.7288631,21.9474238 L38.7288631,23.5571463 C38.7288631,23.7705115 38.8133971,23.9751004 38.9639733,24.1257111 L39.7690276,24.9325541 C39.9203585,25.0839198 40.1249006,25.1684731 40.339066,25.1684731 L41.9492688,25.1684731 L41.9492688,25.9737119 C41.9492688,26.4181833 42.3099535,26.7789506 42.7543231,26.7789506 L43.5593773,26.7789506 L43.5593773,28.3895225 C43.5593773,28.6028876 43.6439113,28.8082316 43.7952423,28.9588422 L44.6002965,29.764081 C44.7508727,29.9154466 44.9561696,30 45.1694858,30 L49.1949458,30 C49.6393153,30 50,29.6392327 50,29.1947612 L50,25.1683788 C50,24.9550136 49.915466,24.7496697 49.764135,24.599059 Z" id="Path" fill="#5A6E84"></path>
            <path d="M20.8749744,37 C20.3920107,37 20,37.3584077 20,37.7999719 L20,44.2000281 C20,44.6415923 20.3920107,45 20.8749744,45 L26.1250256,45 C26.6079893,45 27,44.6415923 27,44.2000281 L27,37.7999719 C27,37.3584077 26.6079893,37 26.1250256,37 L20.8749744,37 Z M25.2500513,43.3999625 L21.7500513,43.3999625 L21.7500513,38.5999437 L25.2500513,38.5999437 L25.2500513,43.3999625 Z" id="Shape" fill="#5A6E84" fill-rule="nonzero"></path>
            <path d="M49.1667952,48.3333008 L40.0000781,48.3333008 L40.0000781,44.9158203 C41.8992029,44.5283203 43.3333854,42.8458008 43.3333854,40.8333008 C43.3333854,40.725 43.2859244,30 39.1666781,30 C35.0475294,30 34.9999707,40.725 34.9999707,40.8333008 C34.9999707,42.8458008 36.4341532,44.5283203 38.333278,44.9158203 L38.333278,48.3333008 L31.6665658,48.3333008 L31.6665658,38.75 C31.6665658,38.2900391 31.2932252,37.9166992 30.8332633,37.9166992 C30.3733015,37.9166992 29.9999609,38.2900391 29.9999609,38.75 L29.9999609,48.3333008 L18.3333366,48.3333008 L18.3333366,37.5 C18.3333366,37.0400391 17.959996,36.6666992 17.5000342,36.6666992 L10.8333219,36.6666992 C10.3733601,36.6666992 10.0000195,37.0400391 10.0000195,37.5 L10.0000195,48.3333008 L6.66671224,48.3333008 L6.66671224,38.75 C6.66671224,38.2900391 6.29337167,37.9166992 5.83340983,37.9166992 C5.373448,37.9166992 5.00000977,38.2900391 5.00000977,38.75 L5.00000977,48.3333008 L0.833302409,48.3333008 C0.373340573,48.3333008 0,48.7066406 0,49.1666016 C0,49.6265625 0.373340573,50 0.833302409,50 L49.1666976,50 C49.6266594,50 50,49.6266602 50,49.1666992 C50,48.7067383 49.6267571,48.3333008 49.1667952,48.3333008 Z M16.6667318,42.5 L15.8334294,42.5 C15.3734675,42.5 15.000127,42.8733398 15.000127,43.3333008 C15.000127,43.7932617 15.3734675,44.1666016 15.8334294,44.1666016 L16.6667318,44.1666016 L16.666722,48.3333008 L11.666722,48.3333008 L11.666722,38.3333008 L16.666722,38.3333008 L16.6667318,42.5 Z M36.6667708,40.8333008 C36.6667708,36.6816406 37.7818121,31.6666016 39.1667708,31.6666016 C40.5517394,31.6666016 41.6667806,36.6816406 41.6667806,40.8333008 C41.6667806,42.2116211 40.5450987,43.3333008 39.1667757,43.3333008 C37.7884527,43.3333008 36.6667708,42.2116211 36.6667708,40.8333008 Z" id="Shape" fill="#5A6E84" fill-rule="nonzero"></path>
        </g>
    </g>
</svg>