<?xml version="1.0" encoding="UTF-8"?>
<svg width="13px" height="13px" viewBox="0 0 13 13" version="1.1" xmlns="http://www.w3.org/2000/svg" xmlns:xlink="http://www.w3.org/1999/xlink">
    <!-- Generator: Sketch 54.1 (76490) - https://sketchapp.com -->
    <title>in</title>
    <desc>Created with Sketch.</desc>
    <g id="404_page_test" stroke="none" stroke-width="1" fill="none" fill-rule="evenodd">
        <g transform="translate(-649.000000, -787.000000)" fill="#317DB7" id="social-media">
            <g transform="translate(570.000000, 770.000000)">
                <g id="in" transform="translate(60.000000, 0.000000)">
                    <path d="M26.2322,21.3334 L26.2322,22.5004 C26.2322,22.5004 27.0062,21.0684 28.8452,21.0684 C30.6842,21.0684 32.0002,22.1904 32.0002,24.5124 L32.0002,30.0004 L29.3292,30.0004 L29.3292,25.4504 C29.3292,24.2024 28.8552,23.5064 27.8682,23.5064 C26.7942,23.5064 26.2322,24.2314 26.2322,25.4504 L26.2322,30.0004 L23.6582,30.0004 L23.6582,21.3334 L26.2322,21.3334 Z M19.2572,30.0004 L19.2572,21.3334 L21.9412,21.3334 L21.9412,30.0004 L19.2572,30.0004 Z M22.1742,18.5994 C22.1742,19.4824 21.4632,20.1984 20.5872,20.1984 C19.7112,20.1984 19.0002,19.4824 19.0002,18.5994 C19.0002,17.7164 19.7112,17.0004 20.5872,17.0004 C21.4632,17.0004 22.1742,17.7164 22.1742,18.5994 Z"></path>
                </g>
            </g>
        </g>
    </g>
</svg>