<?xml version="1.0" encoding="UTF-8"?>
<svg width="170px" height="111px" viewBox="0 0 170 111" version="1.1" xmlns="http://www.w3.org/2000/svg" xmlns:xlink="http://www.w3.org/1999/xlink">
    <!-- Generator: Sketch 54.1 (76490) - https://sketchapp.com -->
    <title>lamp_alladin_404</title>
    <desc>Created with Sketch.</desc>
    <g id="404_page_test" stroke="none" stroke-width="1" fill="none" fill-rule="evenodd">
        <g transform="translate(-1312.000000, -800.000000)" id="lamp_alladin_404">
            <g transform="translate(1313.000000, 801.000000)">
                <g>
                    <g id="shadow-lamp" transform="translate(15.000000, 74.000000)" fill="#099CE7" fill-rule="nonzero" opacity="0.207101004">
                        <path d="M12.5462345,23.256723 C-40.1605341,40.1016621 86.8560999,40.1016621 140.958791,19.0454882 C195.061482,-2.01068569 57.4008597,-2.01068569 29.1204554,2.20054909 C0.840050968,6.41178387 65.2530032,6.41178387 12.5462345,23.256723 Z" id="Oval"></path>
                        <path d="M56.5958738,17.179364 C33.0875913,21.6551025 89.7395734,21.6551025 113.870465,16.0604294 C138.001357,10.4657563 76.6019418,10.4657563 63.9883108,11.5846909 C51.3746797,12.7036255 80.1041563,12.7036255 56.5958738,17.179364 Z" id="Oval"></path>
                    </g>
                    <path d="M116.314177,52.9701391 C118.736348,53.273708 119.47047,53.0032837 119.547872,52.8440367 C134.19724,48.0198966 145.196521,45.4955497 149.266163,38.8076697 C155.261269,28.9555596 151.541904,20.6422018 143.668395,18.1651376 C135.794886,15.6880734 133.56383,14.8623853 130.294943,13.2110092 C127.026056,11.559633 127.032385,8.04584278 127.792553,4.95412844 C129.026896,2.47856902 129.845325,0.825688073 132.739362,0.825688073 C135.606336,0.825688073 137.251807,4.38705741 136.037234,6.60550459 C135.048743,9.39465262 132.641482,9.29408622 133.845113,11.5599633 C135.048743,13.8258404 136.054947,12.3853211 145.768614,17.3394495 C155.482282,22.293578 155.925111,33.6310654 151.541904,39.6330275 C147.743704,44.8339342 144.775079,46.9550289 136.037234,51.1926606 C130.880842,53.8582333 126.283998,55.5013114 125.319149,56.146789 C123.374681,57.8517927 122.884517,61.6182943 121.196809,62.7522936 C120.320514,62.9525115 119.443556,62.8953793 118.722052,62.8087336 C118.578175,63.0586271 118.42528,63.310875 118.263524,63.5652154 C114.964949,68.7518027 106.687689,73.7435795 105.069223,75.1190831 C102.7899,77.1540874 101.38168,80.8902783 101.770648,84.1971219 C102.029023,86.3937228 103.678311,87.7691833 106.718511,88.3235032 L72.908114,88.3235032 C81.0818372,88.5329583 85.4799376,87.4325899 86.1024152,85.0223982 C86.6995572,82.7103042 85.9911011,79.7051394 81.1545523,78.4201881 C59.4102086,72.6432543 42.9914211,56.3617787 17.6569777,49.535519 C12.5504065,48.1595748 3.82567129,51.1860715 2.81338878,51.1860715 C1.80110627,51.1860715 3.17380655,49.9969402 5.28732026,48.7102428 C12.0652644,44.5838615 18.4039665,44.8335168 18.4816215,44.5838615 C19.1661403,42.3831798 20.1711096,41.3977994 21.7801968,41.2827564 C33.3231971,40.4574802 48.2000904,43.4385165 52.2920183,44.5838615 C56.2094356,45.5354681 62.0826038,47.9230677 70.4341825,49.535519 C75.1440614,51.0577187 79.862999,48.7073601 82.8038399,46.234414 C84.7644005,44.5857833 86.0195035,41.8348624 86.5691489,37.9816514 L98.1117021,37.9816514 C99.0996737,42.5110206 101.143966,46.0872178 104.244579,48.7102428 C108.803345,52.9885623 113.319252,52.0628835 115.789593,52.8366241 C115.97005,52.8776872 116.144895,52.9222201 116.314177,52.9701391 Z M57.7139859,88.3486239 L113.775376,88.3486239 C114.231391,88.3486239 114.601064,88.718297 114.601064,89.1743119 C114.601064,89.6303269 114.231391,90 113.775376,90 L57.7139859,90 C57.257971,90 56.8882979,89.6303269 56.8882979,89.1743119 C56.8882979,88.718297 57.257971,88.3486239 57.7139859,88.3486239 Z M87.7929611,28.0733945 C89.0361605,23.0535165 91.3715542,18.9908257 92.2916536,18.9908257 C93.211753,18.9908257 95.8206425,24.0224394 96.8335084,28.0733945 C97.5087524,30.7740312 97.934817,33.5263248 98.1117021,36.3302752 L86.5694561,36.3302752 C86.5563265,34.1722734 86.9641615,31.4199799 87.7929611,28.0733945 Z" id="Combined-Shape" fill="#E9F6FD" fill-rule="nonzero"></path>
                    <path d="M57.7139859,88.3486239 L113.775376,88.3486239 C114.231391,88.3486239 114.601064,88.718297 114.601064,89.1743119 C114.601064,89.6303269 114.231391,90 113.775376,90 L57.7139859,90 C57.257971,90 56.8882979,89.6303269 56.8882979,89.1743119 C56.8882979,88.718297 57.257971,88.3486239 57.7139859,88.3486239 Z M2.81338878,51.1860715 C1.80110627,51.1860715 3.17380655,49.9969402 5.28732026,48.7102428 C12.0652644,44.5838615 18.4039665,44.8335168 18.4816215,44.5838615 C19.1661403,42.3831798 20.1711096,41.3977994 21.7801968,41.2827564 C33.3231971,40.4574802 48.2000904,43.4385165 52.2920183,44.5838615 C56.2094356,45.5354681 62.0826038,47.9230677 70.4341825,49.535519 C75.1440614,51.0577187 86.9643304,62.6581706 116.25,52.0117596 C116.603067,51.8834067 119.913164,58.3786282 116.614588,63.5652154 C113.316013,68.7518027 106.687689,73.7435795 105.069223,75.1190831 C102.7899,77.1540874 101.38168,80.8902783 101.770648,84.1971219 C102.029023,86.3937228 103.678311,87.7691833 106.718511,88.3235032 L72.908114,88.3235032 C81.0818372,88.5329583 85.4799376,87.4325899 86.1024152,85.0223982 C86.6995572,82.7103042 85.9911011,79.7051394 81.1545523,78.4201881 C59.4102086,72.6432543 42.9914211,56.3617787 17.6569777,49.535519 C12.5504065,48.1595748 3.82567129,51.1860715 2.81338878,51.1860715 Z" id="Combined-Shape" fill="#099CE7" fill-rule="nonzero" opacity="0.3"></path>
                    <path d="M57.7139859,88.3486239 L113.775376,88.3486239 C114.231391,88.3486239 114.601064,88.718297 114.601064,89.1743119 C114.601064,89.6303269 114.231391,90 113.775376,90 L57.7139859,90 C57.257971,90 56.8882979,89.6303269 56.8882979,89.1743119 C56.8882979,88.718297 57.257971,88.3486239 57.7139859,88.3486239 Z M2.81338878,51.1860715 C1.80110627,51.1860715 3.17380655,49.9969402 5.28732026,48.7102428 C12.0652644,44.5838615 37.9598243,44.3908871 65.6933594,56.9724771 C76.9130496,62.0623995 86.9643304,62.663934 116.25,52.0175229 C116.603067,51.8891701 119.913164,58.3786282 116.614588,63.5652154 C113.316013,68.7518027 106.687689,73.7435795 105.069223,75.1190831 C102.7899,77.1540874 101.38168,80.8902783 101.770648,84.1971219 C102.029023,86.3937228 103.678311,87.7691833 106.718511,88.3235032 L72.908114,88.3235032 C81.0818372,88.5329583 85.4799376,87.4325899 86.1024152,85.0223982 C86.6995572,82.7103042 85.9911011,79.7051394 81.1545523,78.4201881 C59.4102086,72.6432543 42.9914211,56.3617787 17.6569777,49.535519 C12.5504065,48.1595748 3.82567129,51.1860715 2.81338878,51.1860715 Z" id="Combined-Shape" fill="#099CE7" fill-rule="nonzero" opacity="0.3"></path>
                    <path d="M57.7139859,88.3486239 L113.775376,88.3486239 C114.231391,88.3486239 114.601064,88.718297 114.601064,89.1743119 C114.601064,89.6303269 114.231391,90 113.775376,90 L57.7139859,90 C57.257971,90 56.8882979,89.6303269 56.8882979,89.1743119 C56.8882979,88.718297 57.257971,88.3486239 57.7139859,88.3486239 Z M2.81338878,51.1860715 C1.80110627,51.1860715 3.17380655,49.9969402 5.28732026,48.7102428 C12.0652644,44.5838615 38.8092519,53.4734559 66.5427869,66.0550459 C77.7624771,71.1449683 108.476329,71.0091743 116.25,52.0175229 C116.322365,51.8407301 119.913164,58.3786282 116.614588,63.5652154 C113.316013,68.7518027 104.491668,72.3610224 102.719343,75.4861534 C100.947019,78.6112844 102.785841,72.1255361 96.8107897,75.1190831 C93.4776923,76.7889908 87.9721912,76.4970972 80.9661476,75.1190831 C57.1752961,70.4396762 42.9914211,56.3617787 17.6569777,49.535519 C12.5504065,48.1595748 3.82567129,51.1860715 2.81338878,51.1860715 Z" id="Combined-Shape" fill="#099CE7" fill-rule="nonzero"></path>
                    <path d="M2.81338878,51.1860715 C1.80110627,51.1860715 3.17380655,49.9969402 5.28732026,48.7102428 C12.0652644,44.5838615 38.8092519,53.4734559 66.5427869,66.0550459 C77.7624771,71.1449683 108.476329,71.0091743 116.25,52.0175229 C116.322365,51.8407301 119.913164,58.3786282 116.614588,63.5652154 C113.316013,68.7518027 104.491668,72.3610224 102.719343,75.4861534 C100.947019,78.6112844 102.785841,72.1255361 96.8107897,75.1190831 C93.4776923,76.7889908 87.9721912,76.4970972 80.9661476,75.1190831 C57.1752961,70.4396762 42.9914211,56.3617787 17.6569777,49.535519 C12.5504065,48.1595748 3.82567129,51.1860715 2.81338878,51.1860715 Z" id="Combined-Shape" fill="#162331" fill-rule="nonzero" opacity="0.2"></path>
                    <path d="M114.66524,52.1444511 C117.087412,52.44802 117.821534,52.1775957 117.898936,52.0183486 C132.548304,47.1942086 143.547585,44.6698616 147.617226,37.9819817 C153.612333,28.1298716 150.347874,19.8165138 141.164798,16.5137615 C131.981721,13.2110092 131.992993,14.036367 128.646006,12.3853211 C125.29902,10.7342752 124.13921,6.67686532 125.224544,3.97886504 C126.309879,1.28086475 128.09011,-4.61263102e-13 130.984146,-4.61852778e-13 C133.851121,-4.61852778e-13 135.602871,3.56136933 134.388298,5.77981651 C133.399807,8.56896454 130.992546,8.46839815 132.196177,10.7342752 C133.399807,13.0001523 134.406011,11.559633 144.119678,16.5137615 C153.833345,21.4678899 154.276175,32.8053774 149.892968,38.8073394 C146.094768,44.0082461 143.126143,46.1293408 134.388298,50.3669725 C129.231906,53.0325452 124.635062,54.6756233 123.670213,55.3211009 C121.725745,57.0261046 121.23558,60.7926062 119.547872,61.9266055 C118.671578,62.1268234 117.79462,62.0696912 117.073116,61.9830455 C116.929238,62.232939 116.776344,62.4851869 116.614588,62.7395274 C113.316013,67.9261146 105.038753,72.9178914 103.420287,74.293395 C101.140964,76.3283993 99.732744,80.0645902 100.121712,83.3714339 C100.380087,85.5680348 102.029375,86.9434952 105.069575,87.4978152 L71.2591778,87.4978152 C79.4329011,87.7072702 83.8310015,86.6069019 84.453479,84.1967101 C85.050621,81.8846162 84.3421649,78.8794513 79.5056161,77.5945001 C57.7612724,71.8175662 41.342485,55.5360906 16.0080415,48.7098309 C10.9014703,47.3338867 2.17673512,50.3603835 1.16445261,50.3603835 C0.152170103,50.3603835 1.52487038,49.1712521 3.63838409,47.8845547 C10.4163282,43.7581734 16.7550304,44.0078288 16.8326853,43.7581734 C17.5172041,41.5574917 18.5221734,40.5721113 20.1312606,40.4570683 C31.6742609,39.6317921 46.5511543,42.6128284 50.6430822,43.7581734 C54.5604994,44.7097801 60.4336676,47.0973796 68.7852464,48.7098309 C73.4951253,50.2320306 78.2140628,47.881672 81.1549037,45.4087259 C83.1154644,43.7600952 84.3705674,41.0091743 84.9202128,37.1559633 L96.462766,37.1559633 C97.4507376,41.6853326 99.49503,45.2615297 102.595643,47.8845547 C107.154409,52.1628742 111.670316,51.2371954 114.140657,52.010936 C114.321114,52.0519991 114.495959,52.096532 114.66524,52.1444511 Z M56.0650498,87.5229358 L112.12644,87.5229358 C112.582455,87.5229358 112.952128,87.8926089 112.952128,88.3486239 C112.952128,88.8046388 112.582455,89.1743119 112.12644,89.1743119 L56.0650498,89.1743119 C55.6090348,89.1743119 55.2393617,88.8046388 55.2393617,88.3486239 C55.2393617,87.8926089 55.6090348,87.5229358 56.0650498,87.5229358 Z M86.144025,27.2477064 C87.3872243,22.2278284 89.722618,18.1651376 90.6427174,18.1651376 C91.5628169,18.1651376 94.1717063,23.1967514 95.1845723,27.2477064 C95.8598162,29.9483431 96.2858808,32.7006367 96.462766,35.5045872 L84.9205199,35.5045872 C84.9073904,33.3465854 85.3152254,30.5942918 86.144025,27.2477064 Z" id="Combined-Shape" stroke="#099CE7" stroke-width="2" opacity="0.303036644" fill-rule="nonzero"></path>
                    <path d="M93.1934763,31.3761468 C94.5096864,27.1144594 89.2645718,20.6422018 90.6528424,18.0435825 C92.041113,15.4449631 95.8206425,24.0224394 96.8335084,28.0733945 C97.5087524,30.7740312 97.934817,33.526338 98.1117021,36.3303148 L82.2801436,34.0846294 C88.6782253,35.1200993 92.3160028,34.2172717 93.1934763,31.3761468 Z" id="Rectangle" fill="#099CE7" fill-rule="nonzero"></path>
                    <path d="M116.54428,52.0183486 C131.193648,47.1942086 145.321721,44.6695314 149.391363,37.9816514 C155.386469,28.1295413 151.541904,20.6422018 143.668395,18.1651376 C135.794886,15.6880734 133.56383,14.8623853 130.294943,13.2110092 C127.026056,11.559633 127.032385,8.04584278 127.792553,4.95412844 C129.026896,2.47856902 129.845325,0.825688073 132.739362,0.825688073 C135.606336,0.825688073 137.251807,4.38705741 136.037234,6.60550459 C135.048743,9.39465262 132.641482,9.29408622 133.845113,11.5599633 C135.048743,13.8258404 136.054947,12.3853211 145.768614,17.3394495 C155.482282,22.293578 155.341203,34.7211093 150.829753,40.4587156 C146.285115,46.2385321 137.930142,47.7807169 129.192297,52.0183486 C124.035905,54.6839214 119.644892,63.4187303 119.644892,61.6443879 C119.644892,54.4267002 116.458119,52.1956165 116.54428,52.0183486 Z" id="Path-4" fill="#099CE7" fill-rule="nonzero" opacity="0.6"></path>
                    <rect id="Rectangle" stroke-opacity="0.300894475" stroke="#099CE7" stroke-width="2" fill="#FFFFFF" fill-rule="nonzero" x="80.1489362" y="34.853211" width="21.0851064" height="2.95412844" rx="1.47706422"></rect>
                    <ellipse id="Oval" fill="#FFFFFF" fill-rule="nonzero" cx="129.853723" cy="5.36697248" rx="2.06117021" ry="2.06422018"></ellipse>
                    <ellipse id="Oval" stroke="#099CE7" stroke-width="2" fill-rule="nonzero" cx="129.853723" cy="5.36697248" rx="2.06117021" ry="2.06422018"></ellipse>
                    <ellipse id="Oval" stroke-opacity="0.399116848" stroke="#099CE7" stroke-width="2" fill-rule="nonzero" cx="90.6914894" cy="13.2110092" rx="4.12234043" ry="4.12844037"></ellipse>
                    <ellipse id="Oval" fill="#A5DAF5" fill-rule="nonzero" cx="91.5159574" cy="14.0366972" rx="2.47340426" ry="2.47706422"></ellipse>
                    <ellipse id="Oval" stroke="#099CE7" stroke-width="2" fill="#FFFFFF" fill-rule="nonzero" cx="90.6914894" cy="13.2110092" rx="1.64893617" ry="1.65137615"></ellipse>
                    <path d="M16.6346903,46.2385321 C15.9516786,46.2385321 15.3979882,46.9225545 15.3979882,46.2385321 C15.3979882,45.5545097 15.9516786,45 16.6346903,45 C19.4363917,45 22.1073639,45.191827 24.8172488,45.5819013 C31.2157659,46.5029356 35.2733887,46.4204068 52.1201986,52.0183486 C52.3490264,52.0943847 52.9632681,52.7654629 53.1971124,52.843211 C67.3602019,57.5521307 70.0919457,59.1622041 76.0044237,60.1208291 C80.6008486,60.8660747 85.0415593,61.0449714 89.980582,60.6461193 C98.7064191,59.9414619 115.038481,52.41983 115.411916,52.9925601 C115.785351,53.5652903 115.172948,53.7831672 114.601064,54.1571549 C107.15905,59.0239151 103.59836,62.8880876 90.5159678,64.6483927 C85.9863409,65.257878 79.1996643,64.3550386 74.407037,63.5779817 C68.3100599,62.5894427 64.3234058,61.3484626 50.7824837,55.6734698 C36.4154198,49.6522414 37.6529905,50.5141288 27.4353027,47.6884073 C25.6146858,47.1849121 19.3184683,46.2385321 16.6346903,46.2385321 Z" id="Path-6" fill="#FFFFFF" fill-rule="nonzero"></path>
                    <path d="M0.487515064,50.5036464 C6.20028448,47.1003709 12.6896159,45.3987332 19.9555093,45.3987332 C30.8543493,45.3987332 38.2886521,47.5528775 54.2039457,52.844367 C70.1192393,58.1358564 73.8720184,61.9266055 92.7007277,59.4495413 C105.253201,57.7981651 113.302902,55.3211009 116.849833,52.0183486" id="Path-6" stroke="#099CE7" stroke-width="2" stroke-linecap="round" stroke-linejoin="round" fill-rule="nonzero"></path>
                    <path d="M88.5642973,40.4587156 C84.0490463,43.7611376 92.1862403,46.2385321 89.3714548,49.6912629 C86.5566692,53.1439937 81.1742774,50.9635882 81.1742774,52.0183486 C81.1742774,53.073109 86.9350872,55.1606401 94.0392807,55.1606401 C101.143474,55.1606401 109.125275,53.6703853 108.594282,52.844367 C108.06329,52.0183486 102.976386,51.1799972 100.583899,48.5801319 C98.9889072,46.8468883 97.8996807,43.3140615 97.3162192,37.9816514 C94.4917719,37.4314128 91.5744646,38.2571009 88.5642973,40.4587156 Z" id="Path-7" fill-opacity="0.3" fill="#099CE7" fill-rule="nonzero"></path>
                    <path d="M95.2461924,51.0805798 C98.8890693,56.3333642 105.36062,53.6680734 105.153094,52.843211 C104.945568,52.0183486 101.453656,51.2495437 99.0611689,48.6496784 C97.4661774,46.9164348 96.8845275,43.3604258 97.3162192,37.9816514 C93.5076168,43.2124141 92.8176079,47.5787236 95.2461924,51.0805798 Z" id="Path-7" fill-opacity="0.6" fill="#099CE7" fill-rule="nonzero"></path>
                    <path d="M23.3717379,42.8950598 C23.3717379,42.0893286 53.8434422,44.9710012 66.1687973,49.9652229 C78.4941523,54.9594446 78.7978931,54.9594446 79.2999008,55.5642112 C79.8019085,56.1689779 79.0237362,56.1689779 78.4941523,56.3852629 C77.9645684,56.6015479 63.7541686,53.7392713 47.2483014,48.0634721 C30.7424342,42.3876729 23.3717379,43.7007911 23.3717379,42.8950598 Z" id="Path-9" fill-opacity="0.6" fill="#099CE7" fill-rule="nonzero"></path>
                    <path d="M87.8058511,83.3944954 C84.2840262,86.6972477 92.7711779,86.6972477 96.3862772,82.5688073 C100.001377,78.440367 90.8030019,78.440367 88.9133275,79.266055 C87.0236531,80.0917431 91.327676,80.0917431 87.8058511,83.3944954 Z" id="Oval" fill="#099CE7" fill-rule="nonzero"></path>
                </g>
            </g>
        </g>
    </g>
</svg>