<?xml version="1.0" encoding="UTF-8"?>
<svg width="40px" height="48px" viewBox="0 0 40 48" version="1.1" xmlns="http://www.w3.org/2000/svg" xmlns:xlink="http://www.w3.org/1999/xlink">
    <!-- Generator: Sketch 54.1 (76490) - https://sketchapp.com -->
    <title>online-payment-active</title>
    <desc>Created with Sketch.</desc>
    <g id="online-payment-active" stroke="none" stroke-width="1" fill="none" fill-rule="evenodd">
        <g id="online-payment" fill="#099CE7">
            <rect id="Rectangle" x="17.1428571" y="2.88" width="5.71428571" height="1.92"></rect>
            <rect id="Rectangle" x="10.4761905" y="36.48" width="1.9047619" height="1.92"></rect>
            <rect id="Rectangle" x="10.4761905" y="31.68" width="1.9047619" height="1.92"></rect>
            <rect id="Rectangle" x="14.2857143" y="36.48" width="1.9047619" height="1.92"></rect>
            <path d="M38.9999695,16.9999687 C37.6185644,16.9999687 35.5349722,17.4767812 34.0000047,18.9143437 L34,3 C34.0000047,1.34315625 32.6568495,0 31,0 L9,0 C7.34315051,0 5.99999531,1.34315625 6,3 L6,15 L3,15 C1.3431552,15 0,16.3431562 0,18 L0,19.9999687 C0,20.7684375 0.289312274,21.4692187 0.764530653,21.9999375 C0.289312274,22.53075 0,23.2314375 0,23.9999062 L0,25.999875 C0,26.7683437 0.289312274,27.469125 0.764530653,27.9998437 C0.289312274,28.5306562 0,29.2313437 0,29.9998125 L0,31.9997812 C0,32.76825 0.289312274,33.4690312 0.764530653,33.99975 C0.289312274,34.5305625 0,35.23125 0,35.9997187 L0,37.9996875 C0,39.6565312 1.3431552,40.9996875 2.99999766,40.9996875 L5.99999531,40.9996875 L6,45 C5.99999531,46.6568437 7.34315051,48 9,48 L31,48 C32.6568495,48 34.0000047,46.6568437 34,45 L34.0000047,23.3089687 C34.1601296,21.1679062 35.807972,19.3815 38.0000328,19.1049375 L38.0000328,46.9999687 L40,46.9999687 L40,18 C39.9999063,17.4477187 39.5522503,16.9999687 38.9999695,16.9999687 Z M8.99999297,1.99996875 L31.000007,1.99996875 C31.5521941,1.99996875 31.9999438,2.44771875 31.9999438,3 L31.9999438,6 L7.9999625,6 L7.9999625,3 C7.9999625,2.44771875 8.44771215,1.99996875 8.99999297,1.99996875 Z M1.99996719,31.9999687 L1.99996719,30 C1.99996719,29.4477187 2.44771684,28.9999687 2.99999766,28.9999687 L5.99999531,28.9999687 L5.99999531,33 L2.99999766,33 C2.44771684,33 1.99996719,32.55225 1.99996719,31.9999687 Z M1.99996719,25.9999687 L1.99996719,24 C1.99996719,23.4477187 2.44771684,22.9999687 2.99999766,22.9999687 L5.99999531,22.9999687 L5.99999531,27 L2.99999766,27 C2.44771684,27 1.99996719,26.55225 1.99996719,25.9999687 Z M1.99996719,18 C1.99996719,17.4477187 2.44771684,16.9999687 2.99999766,16.9999687 L5.99999531,16.9999687 L5.99999531,21 L2.99999766,21 C2.44771684,21 1.99996719,20.55225 1.99996719,19.9999687 L1.99996719,18 Z M2.99999766,39 C2.44771684,39 1.99996719,38.55225 1.99996719,37.9999687 L1.99996719,36 C1.99996719,35.4477187 2.44771684,34.9999687 2.99999766,34.9999687 L5.99999531,34.9999687 L5.99999531,39 L2.99999766,39 Z M30.9999133,46.0000312 L8.99999297,46.0000312 C8.44771215,46.0000312 7.9999625,45.5522812 7.9999625,45 L7.9999625,42 L31.9999438,42 L31.9999438,45 C31.9999438,45.5522812 31.5521941,46.0000312 30.9999133,46.0000312 Z M31.9999438,40.0000312 L7.9999625,40.0000312 L7.9999625,34.0000312 L7.9999625,28.0000312 L7.9999625,22.0000312 L7.9999625,16.0000312 L7.9999625,7.99996875 L31.9999438,7.99996875 L31.9999438,40.0000312 Z" id="Shape" fill-rule="nonzero"></path>
            <circle id="Oval" fill-rule="nonzero" opacity="0.3" cx="21.5" cy="25.5" r="8.5"></circle>
            <path d="M20.4761905,14.4 C14.9533952,14.4 10.4761905,18.9129279 10.4761905,24.48 C10.4761905,30.0470721 14.9533952,34.56 20.4761905,34.56 C25.9965482,34.5538575 30.4700967,30.0445206 30.4761905,24.48 C30.4761905,18.9130224 25.9989857,14.4 20.4761905,14.4 Z M20.4761905,32.5439433 C16.0579543,32.5439433 12.4762467,28.9335821 12.4762467,24.48 C12.4762467,20.0264179 16.0579543,16.4160567 20.4761905,16.4160567 C24.8923642,16.4210652 28.4711655,20.0284969 28.4761342,24.48 C28.4761342,28.9335821 24.8944267,32.5439433 20.4761905,32.5439433 Z" id="Shape" fill-rule="nonzero"></path>
            <path d="M20,21.36 C20.5259821,21.36 20.9524107,21.82566 20.9524107,22.4000325 L22.8571429,22.4000325 C22.8571429,21.0416625 22.0619643,19.8866775 20.9524107,19.4582625 L20.9524107,18.24 L19.0476786,18.24 L19.0476786,19.4582625 C17.9380357,19.88658 17.1428571,21.0416625 17.1428571,22.4000325 C17.1428571,24.12315 18.4220536,25.5200325 20,25.5200325 C20.5259821,25.5200325 20.9524107,25.9856925 20.9524107,26.560065 C20.9524107,27.1344375 20.5259821,27.6000975 20,27.6000975 C19.4740179,27.6000975 19.0475893,27.1344375 19.0475893,26.560065 L17.1428571,26.560065 C17.1428571,27.918435 17.9380357,29.07342 19.0475893,29.501835 L19.0475893,30.72 L20.9523214,30.72 L20.9523214,29.5017375 C22.061875,29.0733225 22.8570536,27.9183375 22.8570536,26.5599675 C22.8570536,24.83685 21.5778571,23.4399675 19.9999107,23.4399675 C19.4739286,23.4399675 19.0475,22.9743075 19.0475,22.399935 C19.0475893,21.82566 19.4740179,21.36 20,21.36 Z" id="Path"></path>
            <rect id="Rectangle" x="27.6190476" y="9.6" width="1.9047619" height="1.92"></rect>
            <rect id="Rectangle" x="27.6190476" y="14.4" width="1.9047619" height="1.92"></rect>
            <rect id="Rectangle" x="23.8095238" y="9.6" width="1.9047619" height="1.92"></rect>
        </g>
    </g>
</svg>