<?xml version="1.0" encoding="UTF-8"?>
<svg width="14px" height="15px" viewBox="0 0 14 15" version="1.1" xmlns="http://www.w3.org/2000/svg" xmlns:xlink="http://www.w3.org/1999/xlink">
    <!-- Generator: Sketch 54.1 (76490) - https://sketchapp.com -->
    <title>search</title>
    <desc>Created with Sketch.</desc>
    <g id="Symbols" stroke="none" stroke-width="1" fill="none" fill-rule="evenodd">
        <g id="main-tool-panel" transform="translate(-978.000000, -38.000000)" fill="#162331">
            <g id="search">
                <path d="M980.137201,45.0352894 C979.565354,42.9017803 980.832014,40.7092849 982.965442,40.1374165 C985.09787,39.5655481 987.291282,40.8312568 987.862129,42.9647658 C988.433975,45.0982749 987.168315,47.2917701 985.034887,47.8626387 C982.901459,48.4345071 980.709047,47.1687984 980.137201,45.0352894 Z M992,51.6730041 L988.551172,47.9110156 C989.79711,46.4590201 990.329084,44.4370263 989.79711,42.4480324 C988.938153,39.2480422 985.649317,37.348048 982.448477,38.2060454 C979.247637,39.0640427 977.348732,42.3540326 978.20569,45.5540228 C979.063647,48.756013 982.353482,50.6550072 985.554322,49.7970098 C986.077296,49.6570103 986.561272,49.4460109 987.009249,49.1860117 L990.503075,53 L992,51.6730041 Z"></path>
            </g>
        </g>
    </g>
</svg>