<?xml version="1.0" encoding="UTF-8"?>
<svg width="15px" height="13px" viewBox="0 0 15 13" version="1.1" xmlns="http://www.w3.org/2000/svg" xmlns:xlink="http://www.w3.org/1999/xlink">
    <!-- Generator: Sketch 54.1 (76490) - https://sketchapp.com -->
    <title>telegram</title>
    <desc>Created with Sketch.</desc>
    <g id="404_page_test" stroke="none" stroke-width="1" fill="none" fill-rule="evenodd">
        <g transform="translate(-766.000000, -788.000000)" fill="#43A0DE" fill-rule="nonzero" id="social-media">
            <g transform="translate(570.000000, 770.000000)">
                <g id="telegram" transform="translate(180.000000, 0.000000)">
                    <g transform="translate(16.000000, 18.000000)">
                        <path d="M14.9844224,0.875876924 L12.642196,12.3956344 C12.532267,12.9361961 11.9159532,13.1789927 11.4831696,12.8521921 L7.94675932,10.1817997 L6.14436455,12.0749465 C5.82803726,12.4072116 5.2815883,12.272731 5.14568506,11.8291398 L3.84467826,7.58235222 L0.358595847,6.52336439 C-0.0987664974,6.38443822 -0.125731069,5.72847519 0.318621658,5.55032554 L14.0373762,0.0507481317 C14.5595616,-0.158567288 15.0991681,0.311558849 14.9844224,0.875876924 Z M11.7885438,2.7942142 L5.56668974,6.7639041 C5.4571498,6.83378222 5.40731154,6.97101136 5.445537,7.09767264 L6.28013238,9.8641953 C6.29766324,9.92231859 6.37999499,9.9143161 6.38662024,9.85381888 L6.58947199,7.99877494 C6.5972883,7.92709721 6.63071231,7.86097145 6.68323044,7.8131863 L11.9520162,3.02023642 C12.0781565,2.90552143 11.9316566,2.70289403 11.7885438,2.7942142 Z"></path>
                    </g>
                </g>
            </g>
        </g>
    </g>
</svg>