<?xml version="1.0" encoding="UTF-8"?>
<svg width="32px" height="50px" viewBox="0 0 32 50" version="1.1" xmlns="http://www.w3.org/2000/svg" xmlns:xlink="http://www.w3.org/1999/xlink">
    <!-- Generator: Sketch 54.1 (76490) - https://sketchapp.com -->
    <title>telecom-primary</title>
    <desc>Created with Sketch.</desc>
    <g id="Symbols" stroke="none" stroke-width="1" fill="none" fill-rule="evenodd">
        <g id="telecom-primary">
            <g>
                <path d="M27.5933024,46.2 L21,24.4 C21.9141168,23.7182292 19.2474501,25.4737848 13,29.6666667 L8.40669757,46.2 L27.5933024,46.2 Z" id="Path" fill="#099CE7" fill-rule="nonzero" opacity="0.3"></path>
                <path d="M30.1944444,45.2 L27.5933024,45.2 L19.8752306,16.0753906 C21.2464057,15.0527344 22.1388889,13.4296875 22.1388889,11.6 C22.1388889,8.5121094 19.6085477,6 16.5,6 C13.3914523,6 10.8611111,8.5121094 10.8611111,11.6 C10.8611111,13.4296875 11.7535943,15.0527344 13.1247694,16.0753906 L5.40669757,45.2 L2.80555556,45.2 C2.359904,45.2 2,45.5585938 2,46 L2,49.2 C2,49.6414062 2.359904,50 2.80555556,50 L30.1944444,50 C30.640096,50 31,49.6414062 31,49.2 L31,46 C31,45.5585938 30.640096,45.2 30.1944444,45.2 Z M11.1663411,29.7503906 L11.6214328,28.0335938 L16.5,24.4 L21.3785672,28.0335938 L21.8336589,29.7503906 L16.5,33.0960938 L11.1663411,29.7503906 Z M14.9911567,34.0425781 L9.04074436,37.7753906 L10.7372097,31.3742188 L14.9911567,34.0425781 Z M12.2814535,25.5425781 L13.2293972,21.9640625 L15.1579319,23.4 L12.2814535,25.5425781 Z M17.8420681,23.4 L19.7706028,21.9640625 L20.7185465,25.5425781 L17.8420681,23.4 Z M22.2635769,31.3734375 L23.9604357,37.7742188 L18.00963,34.0414062 L22.2635769,31.3734375 Z M12.4722222,11.6 C12.4722222,9.3945312 14.2792154,7.6 16.5,7.6 C18.7207846,7.6 20.5277778,9.3945312 20.5277778,11.6 C20.5277778,13.8054688 18.7207846,15.6 16.5,15.6 C14.2792154,15.6 12.4722222,13.8054688 12.4722222,11.6 Z M16.5,17.2 C17.1741807,17.2 17.8180746,17.0761719 18.4179145,16.859375 L19.3284912,20.29375 L16.5,22.4 L13.6726888,20.29375 L14.5828722,16.859375 C15.1819254,17.0761719 15.8258193,17.2 16.5,17.2 Z M8.43893767,40.0449219 L16.5,34.9886719 L24.5610623,40.0449219 L25.9275174,45.2 L7.07248264,45.2 L8.43893767,40.0449219 Z M29.3888889,48.4 L3.61111111,48.4 L3.61111111,46.8 L29.3888889,46.8 L29.3888889,48.4 Z" id="Shape" fill="#5A6E84" fill-rule="nonzero"></path>
                <path d="M16.5,14 C17.8781739,14 19,12.8781739 19,11.5 C19,10.1218261 17.8781739,9 16.5,9 C15.1218261,9 14,10.1218261 14,11.5 C14,12.8781739 15.1218261,14 16.5,14 Z M16.5,10.6666667 C16.9597981,10.6666667 17.3333333,11.0410156 17.3333333,11.5 C17.3333333,11.9589844 16.9597981,12.3333333 16.5,12.3333333 C16.0402019,12.3333333 15.6666667,11.9589844 15.6666667,11.5 C15.6666667,11.0410156 16.0402019,10.6666667 16.5,10.6666667 Z" id="Shape" fill="#5A6E84" fill-rule="nonzero"></path>
                <path d="M23.6666667,9 L25,9 C25,7.89746092 24.1025391,7 23,7 L23,8.33333333 C23.3678385,8.33333333 23.6666667,8.6328125 23.6666667,9 Z" id="Path" fill="#5A6E84"></path>
                <path d="M27.2857143,9 L29,9 C29,5.69154579 26.3076172,3 23,3 L23,4.71428571 C25.3630023,4.71428571 27.2857143,6.63699771 27.2857143,9 Z" id="Path" fill="#5A6E84"></path>
                <path d="M23,0 L23,1.63636364 C27.0605469,1.63636364 30.3636364,4.94025218 30.3636364,9 L32,9 C32,4.03777524 27.9622248,0 23,0 Z" id="Path" fill="#5A6E84"></path>
                <path d="M8.33333333,9 C8.33333333,8.6328125 8.6321615,8.33333333 9,8.33333333 L9,7 C7.89746092,7 7,7.89746092 7,9 L8.33333333,9 Z" id="Path" fill="#5A6E84"></path>
                <path d="M9,3 C5.69238279,3 3,5.69154579 3,9 L4.71428571,9 C4.71428571,6.63699771 6.63699771,4.71428571 9,4.71428571 L9,3 Z" id="Path" fill="#5A6E84"></path>
                <path d="M9,1.63636364 L9,0 C4.03777524,0 0,4.03777524 0,9 L1.63636364,9 C1.63636364,4.94025218 4.93945312,1.63636364 9,1.63636364 Z" id="Path" fill="#5A6E84"></path>
            </g>
        </g>
    </g>
</svg>