<?xml version="1.0" encoding="UTF-8"?>
<svg width="16px" height="16px" viewBox="0 0 16 16" version="1.1" xmlns="http://www.w3.org/2000/svg" xmlns:xlink="http://www.w3.org/1999/xlink">
    <!-- Generator: Sketch 54.1 (76490) - https://sketchapp.com -->
    <title>united-states-of-america</title>
    <desc>Created with Sketch.</desc>
    <g id="Symbols" stroke="none" stroke-width="1" fill="none" fill-rule="evenodd">
        <g id="united-states-of-america" fill-rule="nonzero">
            <g>
                <circle id="disc" fill="#FFFFFF" cx="8" cy="8" r="8"></circle>
                <path d="M7.39003284,7.65053894 L15.7241379,7.65053894 C15.7241379,6.96570271 15.628046,6.30226575 15.4489967,5.67116483 L7.39003284,5.67116483 L7.39003284,7.65053894 Z" id="Shape" fill="#D80027"></path>
                <path d="M7.39003284,3.69182036 L14.5518785,3.69182036 C14.0629639,2.93389462 13.4378358,2.26396675 12.7089721,1.71244625 L7.39003284,1.71244625 L7.39003284,3.69182036 Z" id="Shape" fill="#D80027"></path>
                <path d="M7.73727422,15.2380952 C9.61696388,15.2380952 11.3446535,14.620895 12.7089721,13.5886316 L2.76557635,13.5886316 C4.12989491,14.620895 5.85758456,15.2380952 7.73727422,15.2380952 Z" id="Shape" fill="#D80027"></path>
                <path d="M0.922669951,11.6092575 L14.5518785,11.6092575 C14.9443892,11.0008007 15.2487947,10.335704 15.4489967,9.62988341 L0.0255517241,9.62988341 C0.225753695,10.335704 0.530159278,11.0008007 0.922669951,11.6092575 Z" id="Shape" fill="#D80027"></path>
                <path d="M3.70575,1.18982143 L4.43478125,1.18982143 L3.75665625,1.65901786 L4.0156875,2.41821429 L3.33759375,1.94901786 L2.6595,2.41821429 L2.88325,1.76235119 C2.2861875,2.2360119 1.762875,2.79095238 1.331625,3.40928571 L1.56521875,3.40928571 L1.1335625,3.70794643 C1.0663125,3.81479167 1.0018125,3.92333333 0.94,4.03348214 L1.146125,4.63767857 L0.7615625,4.37157738 C0.66596875,4.56446429 0.57853125,4.76169643 0.4999375,4.96303571 L0.72703125,5.62875 L1.56521875,5.62875 L0.88709375,6.09794643 L1.146125,6.85714286 L0.46803125,6.38794643 L0.06184375,6.66901786 C0.0211875,6.98026786 0,7.29729167 0,7.61904762 L8,7.61904762 C8,3.41119048 8,2.91511905 8,0 C6.419625,0 4.94640625,0.436607143 3.70575,1.18982143 Z M4.0156875,6.85714286 L3.33759375,6.38794643 L2.6595,6.85714286 L2.91853125,6.09794643 L2.24040625,5.62875 L3.07859375,5.62875 L3.33759375,4.86955357 L3.59659375,5.62875 L4.43478125,5.62875 L3.75665625,6.09794643 L4.0156875,6.85714286 Z M3.75665625,3.87848214 L4.0156875,4.63767857 L3.33759375,4.16848214 L2.6595,4.63767857 L2.91853125,3.87848214 L2.24040625,3.40928571 L3.07859375,3.40928571 L3.33759375,2.65008929 L3.59659375,3.40928571 L4.43478125,3.40928571 L3.75665625,3.87848214 Z M6.88525,6.85714286 L6.20715625,6.38794643 L5.5290625,6.85714286 L5.78809375,6.09794643 L5.10996875,5.62875 L5.94815625,5.62875 L6.20715625,4.86955357 L6.46615625,5.62875 L7.30434375,5.62875 L6.62621875,6.09794643 L6.88525,6.85714286 Z M6.62621875,3.87848214 L6.88525,4.63767857 L6.20715625,4.16848214 L5.5290625,4.63767857 L5.78809375,3.87848214 L5.10996875,3.40928571 L5.94815625,3.40928571 L6.20715625,2.65008929 L6.46615625,3.40928571 L7.30434375,3.40928571 L6.62621875,3.87848214 Z M6.62621875,1.65901786 L6.88525,2.41821429 L6.20715625,1.94901786 L5.5290625,2.41821429 L5.78809375,1.65901786 L5.10996875,1.18982143 L5.94815625,1.18982143 L6.20715625,0.430625 L6.46615625,1.18982143 L7.30434375,1.18982143 L6.62621875,1.65901786 Z" id="Shape" fill="#0052B4"></path>
            </g>
        </g>
    </g>
</svg>